<svg version="1.1" id="Layer_1" xmlns="http://www.w3.org/2000/svg" xmlns:xlink="http://www.w3.org/1999/xlink" x="0px" y="0px"
	 width="100%" viewBox="0 0 378 378" enable-background="new 0 0 378 378" xml:space="preserve">
<path fill="#FC0101" opacity="1.000000" stroke="none" 
	d="
M1.244873,203.305084 
	C1.000000,194.312439 1.000000,185.624863 1.000000,176.468658 
	C3.204298,172.005066 2.060707,167.563980 2.342257,163.397324 
	C4.369172,133.401062 16.091778,107.061790 32.691025,82.696724 
	C48.156998,59.995136 67.798355,41.422718 91.310524,27.115849 
	C109.802490,15.863707 129.588440,7.683714 150.893066,3.592192 
	C157.305832,2.360629 163.930649,2.280535 170.483826,1.990473 
	C172.457016,1.903134 174.484756,2.383936 176.695465,1.244753 
	C185.354233,1.000000 193.708466,1.000000 202.531342,1.000000 
	C206.533203,3.188718 210.492935,1.942682 214.202805,2.148983 
	C245.739670,3.902709 273.430939,16.049549 298.901917,33.715530 
	C325.798309,52.370129 346.554230,76.586456 361.187347,105.904655 
	C367.749084,119.051414 372.829834,132.784805 375.927063,147.190781 
	C377.469543,154.365311 377.400116,161.706696 377.999084,168.978241 
	C378.147797,170.783691 377.657013,172.648743 378.754913,174.693939 
	C379.000000,184.687561 379.000000,194.375122 379.000000,204.531342 
	C376.910126,208.885239 378.083496,213.131485 377.839966,217.178329 
	C376.416504,240.832306 367.767944,262.117310 356.821503,282.665833 
	C348.851807,297.626434 338.527161,310.984497 326.716461,322.976379 
	C300.272064,349.826538 268.787537,368.092651 231.735077,376.139404 
	C225.275116,377.542328 218.618607,377.641724 212.021332,378.006500 
	C210.211960,378.106537 208.348663,377.655243 206.304535,378.755249 
	C195.645767,379.000000 185.291550,379.000000 174.468658,379.000000 
	C170.152161,376.984192 165.983032,378.138763 161.975006,377.876434 
	C148.551468,376.997894 135.753540,373.542084 123.259102,368.824738 
	C99.788651,359.963318 79.026756,346.858307 60.609844,329.740692 
	C39.028923,309.682312 22.696003,286.180359 12.052013,258.757721 
	C5.665482,242.303757 1.626370,225.328629 1.986624,207.516785 
	C2.013195,206.203033 2.188845,204.843475 1.244873,203.305084 
z"/>
<path fill="#000000" opacity="1.000000" stroke="none" 
	d="
M176.531342,1.000000 
	C177.743256,3.991435 175.319061,2.930985 174.177246,3.012468 
	C137.150772,5.654793 104.305794,19.043148 75.058876,41.601456 
	C51.821793,59.524353 33.725780,81.759499 20.782131,108.042107 
	C12.319362,125.226112 7.046037,143.467468 3.890706,162.408020 
	C3.096344,167.176346 4.636854,172.351166 1.327794,176.376053 
	C1.000000,119.071106 1.045910,62.142097 0.893937,5.213610 
	C0.884087,1.523908 1.758713,0.899811 5.276280,0.907860 
	C62.204853,1.038129 119.133812,1.000000 176.531342,1.000000 
z"/>
<path fill="#000000" opacity="1.000000" stroke="none" 
	d="
M379.000000,174.531342 
	C376.616547,175.809479 377.039307,173.959686 376.967590,172.760040 
	C375.490326,148.038361 368.139465,124.981750 356.835693,103.140793 
	C348.671906,87.366951 338.108093,73.296310 325.871216,60.370461 
	C310.286804,43.908592 292.347656,30.732546 272.062927,20.836773 
	C254.396500,12.218320 235.746246,6.677969 216.210739,3.825509 
	C211.617676,3.154859 206.578140,4.711727 202.671600,1.355641 
	C260.261597,1.000000 317.523315,1.045410 374.784515,0.894369 
	C378.468933,0.884650 379.100861,1.751590 379.092621,5.274360 
	C378.961212,61.536900 379.000000,117.799835 379.000000,174.531342 
z"/>
<path fill="#000000" opacity="1.000000" stroke="none" 
	d="
M1.000000,203.468658 
	C3.955647,202.354126 2.929025,204.715652 3.014473,205.899460 
	C5.633208,242.180145 18.213881,274.655518 40.228573,303.529816 
	C59.498177,328.803680 83.507637,348.253967 112.409492,361.473114 
	C128.157990,368.676147 144.668777,373.427795 161.839783,376.147491 
	C166.096649,376.821747 170.813965,375.403320 174.347473,378.656494 
	C117.737350,379.000000 61.474567,378.953400 5.212330,379.106384 
	C1.519165,379.116394 0.900135,378.236633 0.908149,374.722504 
	C1.037977,317.794342 1.000000,260.865784 1.000000,203.468658 
z"/>
<path fill="#000000" opacity="1.000000" stroke="none" 
	d="
M206.468658,379.000000 
	C205.273483,376.624847 207.091339,377.057068 208.315628,376.960938 
	C240.698669,374.418610 270.026855,363.345581 296.599426,344.920013 
	C313.912048,332.915314 328.694000,318.381500 341.407074,301.394897 
	C356.151184,281.694550 366.114594,259.957123 372.430756,236.460785 
	C374.891785,227.305740 376.941803,217.907196 376.944000,208.271408 
	C376.944336,206.800156 376.684814,205.208664 378.659180,204.643616 
	C379.000000,261.595154 378.953949,318.190430 379.105774,374.785187 
	C379.115692,378.471344 378.246063,379.100769 374.725037,379.092499 
	C318.796021,378.961060 262.866638,379.000000 206.468658,379.000000 
z"/>
<path fill="#000000" opacity="1.000000" stroke="none" 
	d="
M321.488953,175.620453 
	C324.680267,210.969513 316.489075,242.786392 294.881683,270.718872 
	C278.308624,292.143311 257.195984,307.420471 231.413483,315.875061 
	C212.486649,322.081573 193.091064,323.592133 173.250931,321.194244 
	C143.525238,317.601593 118.332367,304.824432 97.007927,284.246613 
	C80.850334,268.654694 69.810265,249.639923 63.232937,228.308899 
	C58.489151,212.924255 56.701721,196.886536 58.023636,180.779602 
	C60.288551,153.182541 69.850479,128.376495 87.454720,106.771103 
	C103.857666,86.640045 124.363449,72.465950 148.973312,64.443169 
	C166.230881,58.817223 183.900299,57.020645 202.169128,58.585213 
	C223.889816,60.445400 243.569382,67.521179 261.778564,78.948845 
	C274.623505,87.010017 285.586212,97.368889 294.866608,109.392662 
	C308.246582,126.727882 316.741638,146.256683 320.544037,167.813904 
	C320.973145,170.246796 321.041473,172.743317 321.488953,175.620453 
z"/>
</svg>